<svg width="28" height="28" viewBox="0 0 28 28" fill="none" xmlns="http://www.w3.org/2000/svg">
<path d="M12.1333 16.3993L9.23332 13.4993C8.98888 13.2549 8.68888 13.1327 8.33332 13.1327C7.97777 13.1327 7.66666 13.266 7.39999 13.5327C7.15555 13.7771 7.03332 14.0882 7.03332 14.466C7.03332 14.8438 7.15555 15.1549 7.39999 15.3993L11.2 19.1993C11.4444 19.4438 11.7555 19.566 12.1333 19.566C12.5111 19.566 12.8222 19.4438 13.0667 19.1993L20.6333 11.6327C20.8778 11.3882 21 11.0882 21 10.7327C21 10.3771 20.8667 10.066 20.6 9.79935C20.3555 9.5549 20.0444 9.43268 19.6667 9.43268C19.2889 9.43268 18.9778 9.5549 18.7333 9.79935L12.1333 16.3993ZM14 27.3327C12.1555 27.3327 10.4222 26.9825 8.79999 26.282C7.17777 25.5825 5.76666 24.6327 4.56666 23.4327C3.36666 22.2327 2.41688 20.8216 1.71732 19.1993C1.01688 17.5771 0.666656 15.8438 0.666656 13.9993C0.666656 12.1549 1.01688 10.4216 1.71732 8.79935C2.41688 7.17713 3.36666 5.76602 4.56666 4.56602C5.76666 3.36602 7.17777 2.41579 8.79999 1.71535C10.4222 1.01579 12.1555 0.666016 14 0.666016C15.8444 0.666016 17.5778 1.01579 19.2 1.71535C20.8222 2.41579 22.2333 3.36602 23.4333 4.56602C24.6333 5.76602 25.5831 7.17713 26.2827 8.79935C26.9831 10.4216 27.3333 12.1549 27.3333 13.9993C27.3333 15.8438 26.9831 17.5771 26.2827 19.1993C25.5831 20.8216 24.6333 22.2327 23.4333 23.4327C22.2333 24.6327 20.8222 25.5825 19.2 26.282C17.5778 26.9825 15.8444 27.3327 14 27.3327Z" fill="#6FD943"/>
</svg>
